<?xml version="1.0" encoding="UTF-8"?>
<svg xmlns="http://www.w3.org/2000/svg" width="390" height="234" viewBox="0 0 390 234" version="1.1">
  <path d="M 177 72 L 160 80 L 160 82 L 155 86 L 151 94 L 148 97 L 145 110 L 146 127 L 148 132 L 148 136 L 154 146 L 172 162 L 173 161 L 176 163 L 184 165 L 193 165 L 195 166 L 196 165 L 192 164 L 191 165 L 188 162 L 186 163 L 177 159 L 161 143 L 161 141 L 157 136 L 156 127 L 154 124 L 154 117 L 155 116 L 154 111 L 157 101 L 168 87 L 178 82 L 185 80 L 196 81 L 203 84 L 204 86 L 209 87 L 211 91 L 218 97 L 219 100 L 222 101 L 227 99 L 228 97 L 226 92 L 223 89 L 222 85 L 208 75 L 202 74 L 199 72 Z" fill="#28A8FF" stroke="none"/>
  <path d="M 193 116 L 193 124 L 194 124 L 195 125 L 195 126 L 196 125 L 216 125 L 219 127 L 219 130 L 216 134 L 216 135 L 215 136 L 214 136 L 210 140 L 209 140 L 206 142 L 205 142 L 204 141 L 204 142 L 201 144 L 190 144 L 187 142 L 186 143 L 184 143 L 183 142 L 183 143 L 185 145 L 186 145 L 191 149 L 192 148 L 193 149 L 199 149 L 200 150 L 201 150 L 202 149 L 207 149 L 208 148 L 211 148 L 212 147 L 215 147 L 215 146 L 216 145 L 217 145 L 218 144 L 220 144 L 220 143 L 225 138 L 226 138 L 226 137 L 228 135 L 228 133 L 229 132 L 229 128 L 231 125 L 231 119 L 232 118 L 232 117 L 230 115 L 223 115 L 222 116 L 200 116 L 199 115 L 197 115 L 196 116 Z" fill="#28A8FF" stroke="none"/>
  <path d="M 168 91 L 160 102 L 158 109 L 157 123 L 162 139 L 166 146 L 181 158 L 191 161 L 198 161 L 199 162 L 211 161 L 225 155 L 238 142 L 243 127 L 244 116 L 235 116 L 234 127 L 230 136 L 218 148 L 202 153 L 191 152 L 187 149 L 183 148 L 173 139 L 167 127 L 167 111 L 169 104 L 178 94 L 186 90 L 201 89 L 208 91 L 202 86 L 196 84 L 178 85 Z" fill="#FF2D55" stroke="none"/>
  <path d="M 199 67 L 199 69 L 200 69 L 201 70 L 202 70 L 203 71 L 206 71 L 207 72 L 208 72 L 209 73 L 210 73 L 211 74 L 212 74 L 214 76 L 215 76 L 216 77 L 216 78 L 217 78 L 227 88 L 227 89 L 228 90 L 228 91 L 229 92 L 229 93 L 230 94 L 230 95 L 231 96 L 234 96 L 235 95 L 237 95 L 238 94 L 238 92 L 237 91 L 237 90 L 235 88 L 235 87 L 233 85 L 232 85 L 231 84 L 231 83 L 227 79 L 227 78 L 226 77 L 225 77 L 224 76 L 223 76 L 221 74 L 220 74 L 219 73 L 218 73 L 217 72 L 216 72 L 215 71 L 214 71 L 213 70 L 210 70 L 209 69 L 206 69 L 205 68 L 200 68 Z" fill="#FF2D55" stroke="none"/>
</svg>
